# AST/ASF file generated using VICON BodyLanguage
# -----------------------------------------------
:version 1.10
:name VICON
:units
  mass 1.0
  length 0.45
  angle deg
:documentation
   .ast/.asf automatically generated from VICON data using
   VICON BodyBuilder and BodyLanguage model FoxedUp or BRILLIANT.MOD
:root
   order TX TY TZ RX RY RZ
   axis XYZ
   position 0 0 0  
   orientation 0 0 0 
:bonedata
  begin
     id 1 
     name lhipjoint
     direction 0.521689 -0.742065 0.420928 
     length 2.47002 
     axis 0 0 0  XYZ
  end
  begin
     id 2 
     name lfemur
     direction 0.34202 -0.939693 0  
     length 7.24654  
     axis 0 0 20  XYZ
    dof rx ry rz
    limits (-160.0 20.0)
           (-70.0 70.0)
           (-60.0 70.0)
  end
  begin
     id 3 
     name ltibia
     direction 0.34202 -0.939693 0   
     length 8.04849   
     axis 0 0 20   XYZ
    dof rx
    limits (-10.0 170.0)
  end
  begin
     id 4 
     name lfoot
     direction 0.0745411 -0.2048 0.975961   
     length 1.72367   
     axis -90 7.62852e-016 20   XYZ
    dof rx rz
    limits (-45.0 90.0)
           (-70.0 20.0)
  end
  begin
     id 5 
     name ltoes
     direction 1.53556e-011 -4.21901e-011 1   
     length 0.87311   
     axis -90 7.62852e-016 20   XYZ
    dof rx
    limits (-90.0 20.0)
  end
  begin
     id 6 
     name rhipjoint
     direction -0.52849 -0.738415 0.418857   
     length 2.48223  
     axis 0 0 0  XYZ 
  end
  begin
     id 7 
     name rfemur
     direction -0.34202 -0.939693 0   
     length 7.15571   
     axis 0 0 -20   XYZ
    dof rx ry rz
    limits (-160.0 20.0)
           (-70.0 70.0)
           (-70.0 60.0)
  end
  begin
     id 8 
     name rtibia
     direction -0.34202 -0.939693 0   
     length 7.81659   
     axis 0 0 -20   XYZ
    dof rx
    limits (-10.0 170.0)
 end
 begin
     id 9 
     name rfoot
     direction -0.0917348 -0.252039 0.963359   
     length 1.84382  
     axis -90 -7.62852e-016 -20   XYZ
    dof rx rz
    limits (-45.0 90.0)
           (-20.0 70.0)
  end
  begin
     id 10 
     name rtoes
     direction -1.53551e-011 -4.21879e-011 1   
     length 0.927771   
     axis -90 -7.62852e-016 -20   XYZ
    dof rx
    limits (-90.0 20.0)
  end
  begin
     id 11 
     name lowerback
     direction 0.00583058 0.999822 0.0179296   
     length 2.1429   
     axis 0 0 0   XYZ
    dof rx ry rz
    limits (-20.0 45.0)
           (-30.0 30.0)
           (-30.0 30.0)
  end
  begin
     id 12 
     name upperback
     direction -0.0137999 0.999752 -0.0175071   
     length 2.14252   
     axis 0 0 0   XYZ
    dof rx ry rz
    limits (-20.0 45.0)
           (-30.0 30.0)
           (-30.0 30.0)
  end
  begin
     id 13 
     name thorax
     direction -0.0158036 0.99955 -0.0254909   
     length 2.1383   
     axis 0 0 0   XYZ
    dof rx ry rz
    limits (-20.0 45.0)
           (-30.0 30.0)
           (-30.0 30.0)
  end
  begin
     id 14 
     name lowerneck
     direction -0.0101179 0.999403 -0.0330262   
     length 1.65808   
     axis 0 0 0   XYZ
    dof rx ry rz
    limits (-20.0 45.0)
           (-30.0 30.0)
           (-30.0 30.0)
  end
  begin
     id 15 
     name upperneck
     direction 0.0497734 0.995978 -0.074501   
     length 1.5897   
     axis 0 0 0   XYZ
    dof rx ry rz
    limits (-20.0 45.0)
           (-30.0 30.0)
           (-30.0 30.0)
  end
  begin
     id 16
     name head
     direction 0.0189524 0.999519 -0.0245438  
     length 1.74024  
     axis 0 0 0   XYZ
    dof rx ry rz
    limits (-20.0 45.0)
           (-30.0 30.0)
           (-30.0 30.0)
  end
  begin
     id 17 
     name lclavicle
     direction 0.945604 0.324422 0.0241537  
     length 3.59089  
     axis 0 0 0   XYZ
    dof ry rz
    limits (-20.0 10.0)
           (0.0 20.0)
  end
  begin
     id 18 
     name lhumerus
     direction 1 -4.48964e-011 -2.63524e-027   
     length 5.2391   
     axis 180 -30 -90   XYZ
    dof rx ry rz
    limits (-60.0 90.0)
           (-90.0 90.0)
           (-90.0 90.0)
  end
  begin
     id 19
     name lradius
     direction 1 -4.48969e-011 3.86978e-028   
     length 3.31467   
     axis 180 -30 -90   XYZ
    dof rx
    limits (-10.0 170.0)
  end
  begin
     id 20
     name lwrist
     direction 1 -4.48963e-011 7.20928e-028   
     length 1.65734   
     axis -5.52449e-016 90 90   XYZ
    dof ry
    limits (-180.0 0.0)
 end
  begin
     id 21 
     name lhand
     direction 1 -4.48964e-011 1.44186e-027   
     length 0.9659   
     axis -9.20027e-016 90 90   XYZ
    dof rx rz
    limits (-90.0 90.0)
           (-45.0 45.0)
  end
  begin
     id 22 
     name lfingers
     direction 1 -4.48965e-011 2.88371e-027   
     length 0.778733   
     axis -1.84005e-015 90 90   XYZ
    dof rx
    limits (0.0 90.0)
  end
  begin
     id 23
     name lthumb
     direction 0.707107 -6.34931e-011 0.707107   
     length 1.11811   
     axis -90 45 2.85299e-015   XYZ
    dof rx rz
    limits (-45.0 45.0)
           (-45.0 45.0)
  end
  begin
     id 24 
     name rclavicle
     direction -0.923762 0.370785 0.0958234   
     length 3.54196  
     axis 0 0 0   XYZ 
    dof ry rz
    limits (-10.0 20.0)
           (-20.0 0.0)
  end
  begin
     id 25 
     name rhumerus
     direction -1 -4.48966e-011 1.18702e-017  
     length 5.30252   
     axis 180 30 90   XYZ
    dof rx ry rz
    limits (-90.0 60.0)
           (-90.0 90.0)
           (-90.0 90.0)
  end
  begin
     id 26 
     name rradius
     direction -1 -4.48966e-011 4.46736e-027   
     length 3.67875   
     axis 180 30 90   XYZ
    dof rx
    limits (-10.0 170.0)
  end
  begin
     id 27 
     name rwrist
     direction -1 -4.48966e-011 7.20928e-028   
     length 1.83937   
     axis -5.52449e-016 -90 -90   XYZ
    dof ry
    limits (-180.0 0.0)
  end
  begin
     id 28
     name rhand
     direction -1 -4.48973e-011 1.44186e-027   
     length 0.594811   
     axis -9.20027e-016 -90 -90   XYZ
    dof rx rz
    limits (-90.0 90.0)
           (-45.0 45.0)
  end
  begin
     id 29
     name rfingers
     direction -1 -4.48963e-011 2.88371e-027   
     length 0.479552   
     axis -1.84005e-015 -90 -90   XYZ
    dof rx
    limits (0.0 90.0)
  end
  begin
     id 30
     name rthumb
     direction -0.707107 -6.34932e-011 0.707107   
     length 0.688544   
     axis -90 -45 -2.85299e-015   XYZ
    dof rx rz
    limits (-45.0 45.0)
           (-45.0 45.0)
  end
:hierarchy
  begin
    root lhipjoint rhipjoint lowerback
    lhipjoint lfemur
    lfemur ltibia
    ltibia lfoot
    lfoot ltoes
    rhipjoint rfemur
    rfemur rtibia
    rtibia rfoot
    rfoot rtoes
    lowerback upperback
    upperback thorax
    thorax lowerneck lclavicle rclavicle
    lowerneck upperneck
    upperneck head
    lclavicle lhumerus
    lhumerus lradius
    lradius lwrist
    lwrist lhand lthumb
    lhand lfingers
    rclavicle rhumerus
    rhumerus rradius
    rradius rwrist
    rwrist rhand rthumb
    rhand rfingers
  end

#!OML:ASF E:\acrobat2\Project_11_07_03\Capture day 1\Session 1\Acrobat.ASF
:FULLY-SPECIFIED
:DEGREES
127
root 10.8243 3.78126 11.8237 -63.9539 2.31823 2.63414
lowerback 5.60919 -0.29467 -1.53733
upperback 13.2297 -0.260792 -1.66596
thorax 11.0004 -0.187708 -0.950254
lowerneck -1.33863 -2.52955 6.38874
upperneck 13.7054 -3.46632 -2.96627
head 4.15398 -1.56462 -2.09391
rclavicle 6.06293e-015 7.35503e-015
rhumerus -51.06 13.0095 -69.1967
rradius 84.8356
rwrist 14.8176
rhand -14.6925 -51.3239
rfingers 7.12502
rthumb 11.4613 279.009
lclavicle 6.06293e-015 7.35503e-015
lhumerus -40.5874 -10.6986 71.3743
lradius 67.4278
lwrist -19.8705
lhand -13.5016 -7.11922
lfingers 7.12502
lthumb 12.6096 22.4802
rfemur -37.2562 -2.31097 0.819177
rtibia -6.04305e-014
rfoot -16.0422 -15.2334
rtoes 30.6715
lfemur -45.0717 -6.68295 -2.65071
ltibia 25.441
lfoot -12.0414 -0.684618
ltoes -12.5911
128
root 10.835 3.4901 11.8702 -65.9572 2.5785 2.42492
lowerback 5.35942 -0.288754 -1.49498
upperback 13.0153 -0.226183 -1.93343
thorax 10.8969 -0.148267 -1.25851
lowerneck -0.465268 -2.76547 7.49942
upperneck 15.9134 -3.60302 -4.4299
head 4.62089 -1.6186 -2.75692
rclavicle -1.26228e-014 -1.55052e-014
rhumerus -48.9356 14.7856 -69.0307
rradius 85.0189
rwrist 8.05162
rhand -15.1662 -51.0573
rfingers 7.12502
rthumb 11.0044 279.251
lclavicle -1.26228e-014 -1.55052e-014
lhumerus -41.6657 -12.2357 71.3992
lradius 74.0614
lwrist -9.45892
lhand -12.8932 -5.01516
lfingers 7.12502
lthumb 13.1962 24.5472
rfemur -35.551 -2.38418 0.385078
rtibia 2.22639e-014
rfoot -16.9806 -12.3182
rtoes 30.8191
lfemur -44.4803 -8.78173 -1.72794
ltibia 25.6354
lfoot -13.3442 1.28196
ltoes -3.52789
129
root 10.8513 3.25974 11.9142 -68.9312 2.79303 2.40129
lowerback 6.02961 -0.140585 -1.49812
upperback 12.8149 -0.0222586 -2.18397
thorax 10.2699 -0.0297583 -1.50727
lowerneck 0.874683 -2.9817 7.80661
upperneck 18.528 -3.77232 -4.68234
head 5.182 -1.65118 -2.92334
rclavicle 3.53464e-015 4.14963e-015
rhumerus -47.0043 16.7364 -69.7206
rradius 81.8298
rwrist 7.44364
rhand -21.2284 -50.7779
rfingers 7.12502
rthumb 5.15379 279.305
lclavicle 3.53464e-015 4.14963e-015
lhumerus -40.9241 -14.1234 71.4838
lradius 76.7455
lwrist 0.563573
lhand -13.9639 -5.49641
lfingers 7.12502
lthumb 12.1639 24.1299
rfemur -32.4074 -1.86306 -0.156439
rtibia 1.27222e-014
rfoot -18.022 -9.06479
rtoes 32.1444
lfemur -42.3486 -8.6664 -2.64539
ltibia 25.549
lfoot -13.0699 2.03319
ltoes 0.287018
130
root 10.8728 3.07956 11.9353 -72.6431 2.95765 2.76897
lowerback 7.07057 0.297294 -1.28047
upperback 13.0253 0.603953 -2.65039
thorax 9.92897 0.341087 -2.11366
lowerneck 2.23712 -3.23662 8.11637
upperneck 20.7976 -4.14143 -4.02403
head 5.66174 -1.71973 -2.80476
rclavicle -6.06293e-015 9.44227e-015
rhumerus -44.7272 17.6529 -70.9026
rradius 77.0109
rwrist 7.72999
rhand -28.2676 -49.8859
rfingers 7.12502
rthumb -1.64433 280.141
lclavicle -6.06293e-015 9.44227e-015
lhumerus -36.9089 -17.3164 71.5837
lradius 73.3658
lwrist 5.51776
lhand -18.5944 -10.2855
lfingers 7.12502
lthumb 7.69661 19.5544
rfemur -28.3991 -0.592873 -0.407884
rtibia 2.06736e-014
rfoot -17.1221 -9.44303
rtoes 19.4808
lfemur -39.0901 -8.82091 -3.69379
ltibia 25.4246
lfoot -13.5884 3.07087
ltoes 3.16303
131
root 10.8926 3.0063 11.9493 -75.6659 3.1864 2.5002
lowerback 6.78051 0.513282 -1.10382
upperback 13.1181 0.939753 -2.8224
thorax 10.2264 0.544093 -2.39109
lowerneck 3.61566 -3.30261 7.70024
upperneck 22.9768 -4.38215 -2.63809
head 6.17301 -1.71998 -2.32351
rclavicle -2.5842e-015 2.5842e-014
rhumerus -41.9129 18.7416 -71.5553
rradius 71.5471
rwrist 8.92517
rhand -31.7923 -49.605
rfingers 7.12502
rthumb -5.04821 280.475
lclavicle -2.5842e-015 2.5842e-014
lhumerus -32.4561 -18.8715 71.8534
lradius 68.0628
lwrist 4.94348
lhand -21.5395 -16.3758
lfingers 7.12502
lthumb 4.85343 13.5486
rfemur -24.5883 -0.134766 -0.765346
rtibia -4.45278e-014
rfoot -16.7752 -8.64623
rtoes 24.5014
lfemur -36.3601 -9.13734 -4.65241
ltibia 25.0346
lfoot -14.074 3.67593
ltoes 6.02433
132
root 10.9074 2.99261 11.972 -78.538 3.21968 2.27786
lowerback 7.71682 0.686523 -1.16349
upperback 12.1955 1.10758 -2.61958
thorax 8.61816 0.606975 -2.13129
lowerneck 4.89632 -3.11248 6.074
upperneck 25.9983 -4.4263 -0.815624
head 7.04311 -1.67094 -1.49775
rclavicle -2.78299e-015 1.76918e-014
rhumerus -40.3732 21.3331 -72.334
rradius 66.0257
rwrist 8.68093
rhand -35.5012 -49.5064
rfingers 7.12502
rthumb -8.62843 280.69
lclavicle -2.78299e-015 1.76918e-014
lhumerus -29.4017 -20.5167 73.1588
lradius 59.4395
lwrist -2.40395
lhand -28.1514 -23.8736
lfingers 7.12502
lthumb -1.53212 6.1006
rfemur -20.8717 0.387899 -0.502921
rtibia -2.06736e-014
rfoot -15.0175 -9.72831
rtoes 26.9925
lfemur -33.5315 -8.96957 -5.55695
ltibia 24.4951
lfoot -14.2668 3.73061
ltoes 8.35285
133
root 10.9095 3.02756 11.9507 -81.1881 3.0835 1.74483
lowerback 8.33624 1.03671 -0.527329
upperback 11.5172 1.57398 -2.46522
thorax 7.52771 0.892281 -2.32961
lowerneck 5.06776 -3.02045 4.20899
upperneck 28.5089 -4.91956 1.69202
head 7.98013 -1.81658 -0.405886
rclavicle 5.1684e-015 -1.07344e-014
rhumerus -38.9883 22.9875 -73.2104
rradius 60.9297
rwrist 8.28084
rhand -39.3293 -48.3413
rfingers 7.12502
rthumb -12.3212 282.042
lclavicle 5.1684e-015 -1.07344e-014
lhumerus -25.2406 -22.1845 73.9431
lradius 50.523
lwrist -12.6268
lhand -34.6819 -31.7631
lfingers 7.12502
lthumb -7.83778 -1.92837
rfemur -16.8732 0.547036 0.272966
rtibia 0
rfoot -13.4278 -15.1783
rtoes 16.8044
lfemur -30.8636 -8.70618 -6.27737
ltibia 23.9145
lfoot -13.8913 3.4732
ltoes 7.46195
134
root 10.9098 3.1002 11.9366 -84.0135 2.96656 1.05155
lowerback 9.32442 0.682984 -2.24692
upperback 10.8923 0.890935 -1.2064
thorax 6.20224 0.350376 -0.0416375
lowerneck 4.91292 -2.22219 1.57641
upperneck 30.4162 -4.05707 2.72556
head 8.75473 -1.53654 0.429952
rclavicle -6.75868e-015 1.77912e-014
rhumerus -36.965 28.6413 -72.9323
rradius 57.1966
rwrist 9.07721
rhand -39.6256 -47.1841
rfingers 7.12502
rthumb -12.6069 283.216
lclavicle -6.75868e-015 1.77912e-014
lhumerus -22.4806 -18.7749 75.5746
lradius 42.8428
lwrist -24.1873
lhand -37.2423 -35.6084
lfingers 7.12502
lthumb -10.3084 -5.88104
rfemur -12.6216 0.561831 0.752422
rtibia -2.14687e-014
rfoot -11.2613 -18.3571
rtoes 21.049
lfemur -27.9867 -8.96257 -6.90713
ltibia 23.4212
lfoot -13.7092 2.93478
ltoes 5.1078
135
root 10.9166 3.20644 11.9259 -87.0318 2.94797 0.2962
lowerback 10.5641 0.38584 -3.55685
upperback 10.5016 0.306257 -0.410057
thorax 5.1025 -0.0598372 1.54266
lowerneck 4.97714 -1.58535 -0.381637
upperneck 30.6361 -3.37595 3.879
head 8.85952 -1.31475 1.21061
rclavicle 4.47266e-016 1.44429e-015
rhumerus -35.7506 33.5429 -73.088
rradius 54.8179
rwrist 11.7009
rhand -37.9067 -45.0409
rfingers 7.12502
rthumb -10.9493 285.265
lclavicle 4.47266e-016 1.44429e-015
lhumerus -21.0592 -15.7071 76.3327
lradius 38.3523
lwrist -33.888
lhand -37.5363 -36.3619
lfingers 7.12502
lthumb -10.592 -6.64883
rfemur -8.029 0.504817 1.22162
rtibia 5.56597e-015
rfoot -8.6301 -21.8377
rtoes 18.6392
lfemur -24.7534 -9.80617 -7.59957
ltibia 22.886
lfoot -13.8022 2.08452
ltoes 5.58346
136
root 10.9284 3.34052 11.9162 -90.2136 3.02735 -0.467372
lowerback 11.9911 0.163252 -4.35901
upperback 10.3295 -0.148514 -0.137762
thorax 4.17953 -0.338989 2.30974
lowerneck 5.62343 -1.12688 -1.39277
upperneck 28.8564 -2.82354 4.80662
head 8.11518 -1.10916 1.72686
rclavicle -5.46658e-015 -5.41688e-015
rhumerus -35.1687 36.6646 -73.5517
rradius 53.4744
rwrist 16.5302
rhand -33.1593 -40.9512
rfingers 7.12502
rthumb -6.368 289.165
lclavicle -5.46658e-015 -5.41688e-015
lhumerus -21.1152 -14.0812 77.0875
lradius 37.4675
lwrist -33.9948
lhand -31.3181 -34.8649
lfingers 7.12502
lthumb -4.59029 -4.93459
rfemur -3.16431 0.465773 1.43859
rtibia 8.74653e-015
rfoot -7.89995 -23.8985
rtoes 19.1501
lfemur -21.3465 -10.726 -8.50914
ltibia 22.5951
lfoot -13.7759 1.00388
ltoes 7.20377
137
root 10.9385 3.48502 11.9087 -93.5373 3.40342 -1.12091
lowerback 13.7918 0.0425633 -5.42883
upperback 10.4044 -0.529849 -0.0264946
thorax 3.35504 -0.589842 3.07468
lowerneck 5.99853 -0.696809 -2.07435
upperneck 25.8911 -2.17659 5.38578
head 7.0166 -0.857806 2.03854
rclavicle 1.07344e-014 4.87022e-015
rhumerus -34.5156 38.3957 -73.7992
rradius 52.5558
rwrist 21.8759
rhand -27.3761 -36.6913
rfingers 7.12502
rthumb -0.783339 293.33
lclavicle 1.07344e-014 4.87022e-015
lhumerus -21.5401 -13.6521 77.9905
lradius 38.5868
lwrist -28.8039
lhand -23.0639 -29.9935
lfingers 7.12502
lthumb 3.38139 -0.0405455
rfemur -1.50937 0.286057 1.42259
rtibia 6.34895
rfoot -9.60571 -23.0317
rtoes 10.9297
lfemur -17.68 -11.5644 -9.84773
ltibia 22.3715
lfoot -13.6694 -0.259391
ltoes 9.81114
138
root 10.9471 3.62651 11.9031 -96.2388 3.72478 -1.42012
lowerback 15.3978 0.090481 -6.41279
upperback 10.3472 -0.70142 0.0595283
thorax 2.49555 -0.713827 3.75952
lowerneck 6.50227 -0.367841 -2.57119
upperneck 21.9598 -1.57085 5.63942
head 5.62668 -0.638466 2.18612
rclavicle -8.54774e-015 7.55382e-015
rhumerus -34.2611 39.1016 -74.1028
rradius 52.1483
rwrist 27.0498
rhand -21.7337 -33.3733
rfingers 7.12502
rthumb 4.66589 296.698
lclavicle -8.54774e-015 7.55382e-015
lhumerus -22.4061 -12.7942 78.8389
lradius 40.7337
lwrist -24.3082
lhand -15.4462 -23.8335
lfingers 7.12502
lthumb 10.7344 5.87224
rfemur 1.15247 0.450508 1.22236
rtibia 9.20471
rfoot -10.2991 -22.2296
rtoes 3.71747
lfemur -14.5665 -12.3832 -10.9596
ltibia 22.27
lfoot -14.0492 -1.62546
ltoes 12.8133
139
root 10.9572 3.75601 11.8673 -98.0398 3.64957 -1.5718
lowerback 16.452 0.15909 -6.49387
upperback 10.0991 -0.709434 -0.0610843
thorax 1.67623 -0.687072 3.69706
lowerneck 7.49709 -0.208348 -2.49976
upperneck 16.6673 -1.11118 5.66829
head 4.27049 -0.49646 2.35363
rclavicle -2.78299e-015 1.36167e-014
rhumerus -34.9184 38.6588 -75.0757
rradius 52.5402
rwrist 31.1082
rhand -17.7156 -31.345
rfingers 7.12502
rthumb 8.54482 298.848
lclavicle -2.78299e-015 1.36167e-014
lhumerus -23.3459 -12.3278 79.1557
lradius 43.5189
lwrist -20.7272
lhand -8.92606 -18.0211
lfingers 7.12502
lthumb 17.0176 11.2535
rfemur 3.10433 0.465728 1.34287
rtibia 10.7597
rfoot -10.7073 -21.0151
rtoes 2.32242
lfemur -12.4463 -12.8355 -11.4507
ltibia 22.2782
lfoot -13.2681 -2.1485
ltoes 14.8696
140
root 10.9653 3.8783 11.8131 -98.7857 3.41793 -1.90976
lowerback 16.778 0.131376 -5.97638
upperback 9.64075 -0.711527 -0.375267
thorax 0.987098 -0.621707 3.08351
lowerneck 7.90571 -0.173972 -2.16027
upperneck 12.0145 -0.867416 6.02584
head 2.53692 -0.402793 2.33416
rclavicle -4.96962e-015 -2.23633e-015
rhumerus -36.2753 37.5368 -76.4947
rradius 53.5079
rwrist 32.9252
rhand -15.4347 -29.8982
rfingers 7.12502
rthumb 10.7454 300.397
lclavicle -4.96962e-015 -2.23633e-015
lhumerus -24.1474 -12.2851 78.9817
lradius 46.4231
lwrist -17.9306
lhand -4.12512 -13.4478
lfingers 7.12502
lthumb 21.6338 15.3636
rfemur 4.21045 -0.326444 1.62549
rtibia 11.5748
rfoot -10.4648 -19.3317
rtoes 1.89098
lfemur -11.6112 -12.8153 -11.5518
ltibia 22.3393
lfoot -12.2831 -2.79416
ltoes 14.601
141
root 10.968 3.9946 11.7415 -98.2796 3.18177 -2.21065
lowerback 16.1393 0.0975124 -5.14516
upperback 8.91079 -0.616128 -0.861755
thorax 0.494324 -0.494568 2.08894
lowerneck 7.79412 -0.26761 -1.7531
upperneck 7.89978 -0.792974 6.59434
head 1.19979 -0.401994 2.40755
rclavicle 1.0409e-015 -6.84274e-015
rhumerus -37.9936 36.0475 -78.223
rradius 54.7086
rwrist 32.2014
rhand -15.0247 -29.022
rfingers 7.12502
rthumb 11.1409 301.294
lclavicle 1.0409e-015 -6.84274e-015
lhumerus -25.0569 -12.4184 78.4803
lradius 49.3593
lwrist -15.8882
lhand -0.635627 -10.1261
lfingers 7.12502
lthumb 24.9814 18.2608
rfemur 4.01692 -0.313954 1.87634
rtibia 11.6262
rfoot -11.8363 -17.5473
rtoes 10.6516
lfemur -12.139 -12.6477 -11.3138
ltibia 22.3899
lfoot -11.3206 -3.01806
ltoes 13.7082
